<?xml version="1.0" encoding="UTF-8" standalone="no"?>
<!DOCTYPE svg PUBLIC "-//W3C//DTD SVG 1.1//EN" "http://www.w3.org/Graphics/SVG/1.1/DTD/svg11.dtd">
<svg width="100%" height="100%" viewBox="0 0 1500 700" version="1.1" xmlns="http://www.w3.org/2000/svg" xmlns:xlink="http://www.w3.org/1999/xlink" xml:space="preserve" xmlns:serif="http://www.serif.com/" style="fill-rule:evenodd;clip-rule:evenodd;">
    <g id="Group-4" transform="matrix(62.532,0,0,62.532,-30571.8,423.772)">
        <g transform="matrix(1,0,0,1,0.393158,0)">
            <path id="Path-2" d="M499.621,0.657L500.477,0.152L501.364,0.657L501.364,1.608L500.477,2.121L499.621,1.664L499.621,0.657Z" style="fill:rgb(210,15,79);stroke:rgb(151,151,151);stroke-width:0.02px;"/>
            <g id="Group">
                <g id="Group-3">
                    <path id="Polygon" d="M500.562,0.062L501.33,0.505C501.397,0.544 501.438,0.616 501.438,0.693L501.438,1.579C501.438,1.656 501.397,1.728 501.33,1.766L500.562,2.209C500.495,2.248 500.413,2.248 500.346,2.209L499.579,1.766C499.512,1.728 499.47,1.656 499.47,1.579L499.47,0.693C499.47,0.616 499.512,0.544 499.579,0.505L500.346,0.062C500.413,0.024 500.495,0.024 500.562,0.062ZM499.696,0.698L499.696,1.574L500.454,2.011L501.212,1.574L501.212,0.698L500.454,0.261L499.696,0.698Z" style="fill:white;fill-rule:nonzero;"/>
                    <path id="Path-16" d="M499.552,0.766L500.363,1.217C500.418,1.247 500.486,1.227 500.517,1.173C500.547,1.118 500.527,1.049 500.473,1.019L499.661,0.568C499.607,0.538 499.538,0.558 499.508,0.612C499.478,0.667 499.497,0.736 499.552,0.766Z" style="fill:white;fill-rule:nonzero;"/>
                </g>
            </g>
        </g>
        <path id="strateegia" d="M503.056,1.644C502.955,1.644 502.871,1.627 502.802,1.593C502.734,1.558 502.674,1.511 502.621,1.451L502.778,1.298C502.817,1.342 502.86,1.377 502.906,1.403C502.952,1.428 503.005,1.441 503.066,1.441C503.128,1.441 503.172,1.43 503.2,1.409C503.227,1.387 503.241,1.358 503.241,1.32C503.241,1.29 503.231,1.265 503.212,1.247C503.192,1.229 503.159,1.217 503.112,1.21L503.007,1.196C502.893,1.181 502.807,1.149 502.747,1.098C502.687,1.048 502.657,0.975 502.657,0.878C502.657,0.828 502.667,0.782 502.686,0.741C502.704,0.7 502.731,0.665 502.766,0.636C502.801,0.608 502.843,0.586 502.892,0.57C502.941,0.555 502.995,0.547 503.056,0.547C503.107,0.547 503.152,0.551 503.192,0.558C503.231,0.565 503.267,0.576 503.299,0.59C503.331,0.604 503.361,0.622 503.388,0.642C503.415,0.663 503.441,0.686 503.466,0.712L503.315,0.862C503.284,0.83 503.248,0.803 503.205,0.782C503.162,0.761 503.115,0.75 503.064,0.75C503.007,0.75 502.967,0.76 502.942,0.78C502.917,0.8 502.905,0.826 502.905,0.858C502.905,0.893 502.915,0.92 502.936,0.938C502.957,0.956 502.992,0.969 503.042,0.977L503.148,0.991C503.375,1.023 503.488,1.126 503.488,1.3C503.488,1.351 503.478,1.398 503.457,1.44C503.436,1.482 503.407,1.518 503.37,1.548C503.332,1.578 503.287,1.602 503.234,1.619C503.181,1.635 503.121,1.644 503.056,1.644ZM504.028,1.62C503.939,1.62 503.872,1.597 503.825,1.55C503.779,1.504 503.756,1.438 503.756,1.352L503.756,0.776L503.601,0.776L503.601,0.571L503.681,0.571C503.72,0.571 503.747,0.562 503.761,0.544C503.775,0.526 503.782,0.499 503.782,0.463L503.782,0.284L504.013,0.284L504.013,0.571L504.229,0.571L504.229,0.776L504.013,0.776L504.013,1.415L504.213,1.415L504.213,1.62L504.028,1.62ZM504.452,1.62L504.452,0.571L504.71,0.571L504.71,0.788L504.72,0.788C504.726,0.76 504.737,0.733 504.751,0.707C504.765,0.681 504.783,0.658 504.806,0.637C504.829,0.617 504.856,0.601 504.888,0.589C504.919,0.577 504.956,0.571 504.997,0.571L505.054,0.571L505.054,0.814L504.973,0.814C504.886,0.814 504.82,0.827 504.776,0.852C504.732,0.878 504.71,0.919 504.71,0.977L504.71,1.62L504.452,1.62ZM505.993,1.62C505.937,1.62 505.892,1.603 505.859,1.57C505.826,1.538 505.806,1.494 505.798,1.439L505.786,1.439C505.768,1.507 505.733,1.558 505.679,1.593C505.626,1.627 505.559,1.644 505.48,1.644C505.373,1.644 505.29,1.616 505.233,1.559C505.175,1.503 505.146,1.428 505.146,1.334C505.146,1.226 505.185,1.145 505.263,1.092C505.341,1.039 505.451,1.013 505.595,1.013L505.774,1.013L505.774,0.937C505.774,0.878 505.758,0.832 505.728,0.8C505.697,0.768 505.647,0.752 505.579,0.752C505.518,0.752 505.47,0.765 505.433,0.791C505.396,0.817 505.365,0.848 505.339,0.884L505.186,0.748C505.225,0.688 505.277,0.639 505.341,0.602C505.406,0.565 505.491,0.547 505.597,0.547C505.739,0.547 505.847,0.579 505.921,0.643C505.994,0.708 506.031,0.8 506.031,0.921L506.031,1.415L506.136,1.415L506.136,1.62L505.993,1.62ZM505.567,1.457C505.624,1.457 505.673,1.444 505.713,1.419C505.754,1.393 505.774,1.356 505.774,1.306L505.774,1.168L505.609,1.168C505.475,1.168 505.408,1.211 505.408,1.296L505.408,1.33C505.408,1.373 505.421,1.405 505.449,1.426C505.476,1.447 505.516,1.457 505.567,1.457ZM506.665,1.62C506.577,1.62 506.509,1.597 506.463,1.55C506.417,1.504 506.393,1.438 506.393,1.352L506.393,0.776L506.239,0.776L506.239,0.571L506.319,0.571C506.358,0.571 506.384,0.562 506.399,0.544C506.413,0.526 506.42,0.499 506.42,0.463L506.42,0.284L506.651,0.284L506.651,0.571L506.866,0.571L506.866,0.776L506.651,0.776L506.651,1.415L506.85,1.415L506.85,1.62L506.665,1.62ZM507.506,1.644C507.428,1.644 507.359,1.631 507.298,1.605C507.237,1.578 507.185,1.542 507.143,1.494C507.101,1.447 507.068,1.389 507.045,1.321C507.023,1.254 507.011,1.178 507.011,1.093C507.011,1.01 507.022,0.935 507.044,0.868C507.066,0.801 507.098,0.744 507.14,0.697C507.181,0.649 507.232,0.612 507.293,0.586C507.353,0.56 507.422,0.547 507.498,0.547C507.58,0.547 507.651,0.561 507.711,0.589C507.772,0.617 507.821,0.656 507.86,0.704C507.899,0.752 507.928,0.808 507.948,0.871C507.967,0.935 507.977,1.003 507.977,1.075L507.977,1.16L507.279,1.16L507.279,1.186C507.279,1.262 507.3,1.323 507.343,1.37C507.386,1.416 507.45,1.439 507.534,1.439C507.599,1.439 507.651,1.425 507.692,1.399C507.733,1.372 507.77,1.338 507.802,1.296L507.941,1.451C507.898,1.511 507.839,1.558 507.765,1.593C507.69,1.627 507.604,1.644 507.506,1.644ZM507.502,0.74C507.434,0.74 507.379,0.763 507.339,0.808C507.299,0.854 507.279,0.913 507.279,0.985L507.279,1.001L507.709,1.001L507.709,0.983C507.709,0.911 507.691,0.852 507.656,0.807C507.62,0.762 507.569,0.74 507.502,0.74ZM508.629,1.644C508.551,1.644 508.481,1.631 508.42,1.605C508.359,1.578 508.308,1.542 508.266,1.494C508.223,1.447 508.191,1.389 508.168,1.321C508.145,1.254 508.134,1.178 508.134,1.093C508.134,1.01 508.145,0.935 508.167,0.868C508.189,0.801 508.221,0.744 508.263,0.697C508.304,0.649 508.355,0.612 508.415,0.586C508.476,0.56 508.544,0.547 508.621,0.547C508.702,0.547 508.774,0.561 508.834,0.589C508.894,0.617 508.944,0.656 508.983,0.704C509.022,0.752 509.051,0.808 509.07,0.871C509.09,0.935 509.099,1.003 509.099,1.075L509.099,1.16L508.401,1.16L508.401,1.186C508.401,1.262 508.423,1.323 508.466,1.37C508.509,1.416 508.572,1.439 508.657,1.439C508.721,1.439 508.774,1.425 508.815,1.399C508.856,1.372 508.892,1.338 508.924,1.296L509.063,1.451C509.02,1.511 508.962,1.558 508.887,1.593C508.813,1.627 508.727,1.644 508.629,1.644ZM508.625,0.74C508.556,0.74 508.502,0.763 508.462,0.808C508.421,0.854 508.401,0.913 508.401,0.985L508.401,1.001L508.832,1.001L508.832,0.983C508.832,0.911 508.814,0.852 508.779,0.807C508.743,0.762 508.692,0.74 508.625,0.74ZM510.274,1.708C510.274,1.763 510.265,1.811 510.245,1.854C510.226,1.896 510.194,1.931 510.15,1.959C510.105,1.987 510.048,2.009 509.979,2.023C509.909,2.038 509.824,2.045 509.723,2.045C509.635,2.045 509.559,2.04 509.498,2.028C509.436,2.017 509.385,2.001 509.346,1.98C509.306,1.959 509.278,1.934 509.26,1.903C509.243,1.872 509.234,1.837 509.234,1.798C509.234,1.739 509.251,1.694 509.284,1.661C509.316,1.628 509.362,1.607 509.421,1.598L509.421,1.575C509.378,1.565 509.345,1.544 509.322,1.512C509.298,1.481 509.287,1.444 509.287,1.401C509.287,1.374 509.292,1.35 509.303,1.329C509.313,1.309 509.328,1.291 509.346,1.276C509.364,1.261 509.384,1.249 509.407,1.239C509.43,1.229 509.454,1.221 509.48,1.216L509.48,1.208C509.415,1.178 509.367,1.138 509.336,1.085C509.304,1.033 509.289,0.972 509.289,0.903C509.289,0.795 509.325,0.709 509.399,0.644C509.473,0.58 509.581,0.547 509.723,0.547C509.755,0.547 509.787,0.549 509.819,0.553C509.85,0.557 509.879,0.564 509.906,0.573L509.906,0.539C509.906,0.437 509.956,0.386 510.055,0.386L510.218,0.386L510.218,0.583L509.995,0.583L509.995,0.611C510.05,0.642 510.091,0.682 510.117,0.732C510.144,0.781 510.158,0.838 510.158,0.903C510.158,1.008 510.121,1.093 510.048,1.158C509.975,1.222 509.867,1.254 509.723,1.254C509.661,1.254 509.608,1.248 509.562,1.236C509.542,1.245 509.525,1.258 509.51,1.273C509.495,1.289 509.488,1.308 509.488,1.33C509.488,1.383 509.533,1.409 509.625,1.409L509.906,1.409C510.035,1.409 510.129,1.435 510.187,1.488C510.245,1.541 510.274,1.614 510.274,1.708ZM510.033,1.738C510.033,1.705 510.02,1.679 509.993,1.66C509.966,1.641 509.92,1.632 509.854,1.632L509.496,1.632C509.46,1.658 509.441,1.695 509.441,1.74C509.441,1.78 509.458,1.812 509.492,1.835C509.525,1.857 509.582,1.869 509.663,1.869L509.792,1.869C509.876,1.869 509.937,1.858 509.976,1.837C510.014,1.815 510.033,1.782 510.033,1.738ZM509.723,1.079C509.849,1.079 509.912,1.026 509.912,0.919L509.912,0.884C509.912,0.777 509.849,0.724 509.723,0.724C509.597,0.724 509.534,0.777 509.534,0.884L509.534,0.919C509.534,1.026 509.597,1.079 509.723,1.079ZM510.552,0.418C510.498,0.418 510.46,0.406 510.436,0.382C510.413,0.358 510.401,0.327 510.401,0.29L510.401,0.25C510.401,0.212 510.413,0.181 510.436,0.157C510.46,0.133 510.498,0.121 510.552,0.121C510.604,0.121 510.643,0.133 510.667,0.157C510.691,0.181 510.703,0.212 510.703,0.25L510.703,0.29C510.703,0.327 510.691,0.358 510.667,0.382C510.643,0.406 510.604,0.418 510.552,0.418ZM511.355,0.547C511.497,0.547 511.605,0.579 511.679,0.643C511.752,0.708 511.789,0.8 511.789,0.921L511.789,1.415L511.894,1.415L511.894,1.62L511.751,1.62C511.695,1.62 511.65,1.603 511.617,1.57C511.584,1.538 511.564,1.494 511.556,1.439L511.544,1.439C511.526,1.507 511.491,1.558 511.437,1.593C511.384,1.627 511.317,1.644 511.238,1.644C511.131,1.644 511.048,1.616 510.991,1.559C510.933,1.503 510.904,1.428 510.904,1.334C510.904,1.226 510.943,1.145 511.021,1.092C511.099,1.039 511.209,1.013 511.353,1.013L511.532,1.013L511.532,0.937C511.532,0.878 511.516,0.832 511.486,0.8C511.455,0.768 511.405,0.752 511.337,0.752C511.276,0.752 511.228,0.765 511.191,0.791C511.154,0.817 511.123,0.848 511.097,0.884L510.944,0.748C510.983,0.688 511.035,0.639 511.099,0.602C511.164,0.565 511.249,0.547 511.355,0.547ZM510.681,0.571L510.681,1.62L510.423,1.62L510.423,0.571L510.681,0.571ZM511.532,1.168L511.361,1.168C511.233,1.169 511.168,1.21 511.166,1.292L511.166,1.33C511.166,1.373 511.179,1.405 511.207,1.426C511.234,1.447 511.274,1.457 511.325,1.457C511.382,1.457 511.431,1.444 511.471,1.419C511.51,1.394 511.53,1.358 511.532,1.311L511.532,1.306L511.532,1.168Z" style="fill:white;fill-rule:nonzero;"/>
        <g transform="matrix(0.0131705,0,0,0.0131705,479.088,-6.72486)">
            <text x="821.563px" y="626.453px" style="font-family:'Heebo-Medium', 'Heebo';font-weight:500;font-size:134.868px;fill:white;stroke:white;stroke-width:1.21px;stroke-linejoin:round;stroke-miterlimit:2;">powered by</text>
        </g>
    </g>
    <g transform="matrix(22.1185,0,0,22.1185,-20317.4,-17862.1)">
        <text x="921.167px" y="821.463px" style="font-family:'SegoeUI', 'Segoe UI', sans-serif;font-size:12px;fill:white;">T<tspan x="926.411px 930.583px " y="821.463px 821.463px ">ra</tspan>moiaApp</text>
    </g>
</svg>
